<?xml version="1.0" encoding="utf-8"?>
<!-- Generator: Adobe Illustrator 15.1.0, SVG Export Plug-In . SVG Version: 6.00 Build 0)  -->
<!DOCTYPE svg PUBLIC "-//W3C//DTD SVG 1.1//EN" "http://www.w3.org/Graphics/SVG/1.1/DTD/svg11.dtd">
<svg version="1.1" id="Camada_1" xmlns="http://www.w3.org/2000/svg" xmlns:xlink="http://www.w3.org/1999/xlink" x="0px" y="0px"
	 width="360px" height="80px" viewBox="0 0 360 80" enable-background="new 0 0 360 80" xml:space="preserve">
<g>
	<g enable-background="new    ">
		<path fill="#1C3D94" d="M112.339,64.566h1.453c1.129,0,1.944,0.027,2.442,0.084c0.498,0.059,0.918,0.148,1.263,0.279
			c0.564,0.223,0.995,0.564,1.291,1.029c0.295,0.467,0.443,1.037,0.443,1.715c0,1.164-0.415,2.035-1.244,2.617
			c-0.828,0.578-2.069,0.869-3.722,0.869c-0.059,0-0.149-0.002-0.271-0.008c-0.121-0.006-0.212-0.006-0.271,0
			c0.027,0.99,0.055,1.881,0.085,2.674c0.029,0.789,0.062,1.584,0.093,2.379h-1.566c0.065-0.893,0.113-1.824,0.146-2.787
			c0.031-0.967,0.048-1.971,0.048-3.016c0-1.039-0.017-2.039-0.048-3.002C112.453,66.436,112.404,65.492,112.339,64.566z
			 M113.728,70.256c0.07,0,0.174,0.004,0.312,0.01s0.238,0.008,0.302,0.008c1.308,0,2.254-0.197,2.837-0.596
			c0.584-0.398,0.875-1.047,0.875-1.939c0-0.779-0.26-1.352-0.778-1.715c-0.52-0.363-1.349-0.545-2.491-0.545
			c-0.167,0-0.338,0.004-0.513,0.012s-0.356,0.021-0.545,0.035V70.256z"/>
		<path fill="#1C3D94" d="M125.384,64.316c1.556,0,2.768,0.533,3.637,1.6c0.869,1.064,1.304,2.555,1.304,4.471
			c0,1.91-0.435,3.4-1.304,4.469c-0.869,1.066-2.082,1.602-3.637,1.602c-1.555,0-2.768-0.535-3.636-1.602
			c-0.869-1.068-1.304-2.559-1.304-4.469c0-1.916,0.433-3.406,1.3-4.471C122.611,64.85,123.824,64.316,125.384,64.316z
			 M125.384,65.277c-1.21,0-2.12,0.426-2.728,1.279c-0.608,0.854-0.912,2.129-0.912,3.83c0,1.689,0.305,2.963,0.916,3.822
			c0.611,0.859,1.519,1.287,2.724,1.287c1.201,0,2.105-0.428,2.717-1.287s0.917-2.133,0.917-3.822c0-1.701-0.304-2.977-0.913-3.83
			C127.497,65.703,126.589,65.277,125.384,65.277z"/>
		<path fill="#1C3D94" d="M133.053,64.566h1.921c1.075,1.975,2.101,3.826,3.075,5.551c0.975,1.723,1.932,3.387,2.874,4.982v-2.283
			c0-2.164-0.016-3.865-0.048-5.105c-0.032-1.24-0.086-2.289-0.162-3.145h1.534c-0.08,0.871-0.142,1.836-0.186,2.895
			c-0.042,1.057-0.065,2.18-0.065,3.369c0,1.119,0.013,2.111,0.037,2.975c0.024,0.865,0.063,1.666,0.117,2.4h-1.904
			c-0.99-1.791-1.984-3.572-2.983-5.342c-0.998-1.771-1.998-3.529-2.999-5.271v2.221c0,2.088,0.021,3.783,0.061,5.092
			c0.041,1.309,0.104,2.408,0.19,3.301h-1.591c0.086-0.986,0.151-2.035,0.198-3.139c0.045-1.104,0.068-2.25,0.068-3.438
			c0-0.783-0.01-1.592-0.032-2.436C133.136,66.352,133.101,65.475,133.053,64.566z"/>
		<path fill="#1C3D94" d="M144.063,64.566h7.935l0.219,1.072c-0.479-0.053-0.98-0.094-1.502-0.119
			c-0.522-0.027-1.063-0.041-1.622-0.041h-0.436c-0.01,0.699-0.02,1.389-0.024,2.063c-0.005,0.676-0.008,1.43-0.008,2.264
			c0,1.432,0.016,2.646,0.048,3.645c0.032,1,0.083,1.916,0.154,2.756h-1.591c0.069-0.834,0.121-1.748,0.153-2.748
			c0.033-0.998,0.049-2.215,0.049-3.652c0-0.586-0.009-1.684-0.024-3.293c-0.005-0.451-0.008-0.795-0.008-1.031h-0.419
			c-0.549,0-1.086,0.014-1.611,0.039c-0.525,0.025-1.035,0.066-1.53,0.121L144.063,64.566z"/>
		<path fill="#1C3D94" d="M153.984,64.566h5.602l0.201,1.148c-0.43-0.076-0.906-0.133-1.425-0.166
			c-0.52-0.035-1.126-0.055-1.82-0.055h-1.17v4.037h4.327l-0.258,1.09c-0.479-0.068-0.995-0.121-1.546-0.152
			c-0.551-0.033-1.167-0.051-1.845-0.051h-0.678v4.859h0.905c0.586,0,1.174-0.02,1.763-0.061c0.588-0.039,1.188-0.1,1.795-0.182
			l-0.33,1.17h-5.521c0.064-0.893,0.113-1.824,0.145-2.787c0.032-0.967,0.048-1.971,0.048-3.016c0-1.039-0.016-2.039-0.048-3.002
			C154.096,66.436,154.048,65.492,153.984,64.566z"/>
		<path fill="#1C3D94" d="M167.504,64.566h1.922c1.075,1.975,2.101,3.826,3.075,5.551c0.974,1.723,1.932,3.387,2.874,4.982v-2.283
			c0-2.164-0.016-3.865-0.048-5.105c-0.032-1.24-0.086-2.289-0.162-3.145h1.534c-0.08,0.871-0.142,1.836-0.186,2.895
			c-0.042,1.057-0.064,2.18-0.064,3.369c0,1.119,0.012,2.111,0.036,2.975c0.024,0.865,0.063,1.666,0.117,2.4h-1.905
			c-0.989-1.791-1.984-3.572-2.982-5.342c-0.999-1.771-1.998-3.529-2.999-5.271v2.221c0,2.088,0.021,3.783,0.061,5.092
			s0.103,2.408,0.189,3.301h-1.59c0.085-0.986,0.152-2.035,0.198-3.139c0.045-1.104,0.069-2.25,0.069-3.438
			c0-0.783-0.011-1.592-0.032-2.436C167.588,66.352,167.554,65.475,167.504,64.566z"/>
		<path fill="#1C3D94" d="M184.021,64.316c1.556,0,2.767,0.533,3.636,1.6c0.87,1.064,1.304,2.555,1.304,4.471
			c0,1.91-0.433,3.4-1.304,4.469c-0.869,1.066-2.08,1.602-3.636,1.602c-1.557,0-2.768-0.535-3.637-1.602
			c-0.869-1.068-1.304-2.559-1.304-4.469c0-1.916,0.433-3.406,1.3-4.471C181.246,64.85,182.459,64.316,184.021,64.316z
			 M184.021,65.277c-1.211,0-2.121,0.426-2.729,1.279c-0.608,0.854-0.912,2.129-0.912,3.83c0,1.689,0.306,2.963,0.916,3.822
			s1.519,1.287,2.725,1.287c1.2,0,2.104-0.428,2.716-1.287s0.916-2.133,0.916-3.822c0-1.701-0.305-2.977-0.912-3.83
			S185.226,65.277,184.021,65.277z"/>
		<path fill="#1C3D94" d="M189.962,64.566h1.752c0.378,1.668,0.804,3.367,1.28,5.094c0.476,1.727,0.998,3.463,1.568,5.205
			c0.828-2.49,1.479-4.578,1.95-6.262c0.472-1.686,0.781-3.029,0.925-4.037h1.591c-0.824,2.336-1.548,4.492-2.171,6.469
			c-0.625,1.979-1.125,3.703-1.502,5.17h-1.672c-0.64-2.572-1.278-4.848-1.913-6.83C191.135,67.391,190.532,65.789,189.962,64.566z"
			/>
		<path fill="#1C3D94" d="M203.28,64.438c0.156,0.012,0.276,0.02,0.359,0.023c0.084,0.006,0.16,0.008,0.229,0.008
			c0.07,0,0.149-0.002,0.238-0.008c0.089-0.004,0.2-0.012,0.336-0.023c0.57,2.045,1.198,4.049,1.884,6.01
			c0.688,1.961,1.431,3.881,2.233,5.758h-1.615c-0.205-0.703-0.403-1.363-0.594-1.98c-0.19-0.615-0.38-1.201-0.568-1.756h-4.375
			c-0.226,0.604-0.428,1.217-0.605,1.836c-0.178,0.621-0.336,1.256-0.475,1.9h-1.567c0.905-2.125,1.735-4.17,2.49-6.137
			C202.007,68.102,202.685,66.225,203.28,64.438z M203.749,65.986c-0.313,0.846-0.635,1.729-0.965,2.648
			c-0.332,0.92-0.674,1.896-1.028,2.93h3.729c-0.264-0.861-0.537-1.75-0.82-2.66C204.383,67.994,204.077,67.021,203.749,65.986z"/>
		<path fill="#1C3D94" d="M214.298,71.33h4.005v1.057h-4.005V71.33z"/>
		<path fill="#1C3D94" d="M226.48,64.566h2.284c0.316,1.199,0.731,2.607,1.242,4.221c0.511,1.615,1.096,3.363,1.753,5.24
			c0.539-1.711,1.032-3.361,1.485-4.957c0.451-1.592,0.85-3.094,1.194-4.504h2.324c0.087,1.873,0.263,3.779,0.532,5.719
			s0.632,3.914,1.091,5.92h-1.606c-0.069-1.215-0.209-2.723-0.417-4.523c-0.208-1.799-0.485-3.939-0.834-6.422
			c-0.571,1.547-1.123,3.211-1.655,4.996c-0.532,1.789-1.068,3.771-1.606,5.949h-0.993c-0.688-2.371-1.319-4.416-1.893-6.135
			c-0.573-1.715-1.153-3.32-1.74-4.813c-0.247,1.605-0.473,3.326-0.678,5.168c-0.204,1.84-0.382,3.766-0.532,5.777h-1.469
			c0.419-2.174,0.755-4.227,1.008-6.162C226.224,68.107,226.394,66.283,226.48,64.566z"/>
		<path fill="#1C3D94" d="M247.928,64.639l0.201,1.234c-0.37-0.133-0.764-0.234-1.179-0.297c-0.415-0.066-0.861-0.098-1.34-0.098
			c-1.404,0-2.523,0.463-3.358,1.396c-0.835,0.93-1.252,2.184-1.252,3.76c0,1.492,0.379,2.662,1.131,3.51s1.786,1.27,3.1,1.27
			c0.35,0,0.692-0.039,1.027-0.121c0.338-0.08,0.684-0.209,1.038-0.381V74.09c0-0.711-0.015-1.34-0.045-1.889
			c-0.028-0.549-0.074-1.045-0.133-1.486h1.437c-0.037,0.34-0.065,0.723-0.085,1.152c-0.02,0.426-0.028,0.92-0.028,1.479
			c0,0.453,0.008,0.838,0.021,1.154c0.012,0.318,0.033,0.604,0.061,0.857c-0.528,0.334-1.093,0.582-1.694,0.746
			c-0.604,0.164-1.24,0.244-1.914,0.244c-1.594,0-2.847-0.494-3.762-1.484c-0.914-0.988-1.373-2.346-1.373-4.068
			c0-1.996,0.551-3.553,1.652-4.67c1.101-1.115,2.638-1.672,4.612-1.672c0.269,0,0.559,0.012,0.867,0.043
			C247.221,64.525,247.562,64.574,247.928,64.639z"/>
	</g>
	<g>
		<path fill="#FFFFFF" d="M241.044,0.403H118.45c-7.458,0-13.529,5.885-13.529,13.117v13.112c0,7.233,6.07,13.118,13.529,13.118
			h122.594c7.464,0,13.531-5.885,13.531-13.118V13.52C254.575,6.288,248.508,0.403,241.044,0.403"/>
		<path fill="#1C3D94" d="M255.078,26.342v-12.36c0-7.586-6.03-13.738-13.472-13.738h-87.86c0,0,2.513,7.259-0.475,19.918
			c-2.987,12.66,0.914,19.918,0.914,19.918h87.421C249.046,40.081,255.078,33.931,255.078,26.342"/>
		<path fill="#1C3D94" d="M254.575,26.717c0,7.233-6.048,13.12-13.483,13.12H118.908c-7.433,0-13.482-5.887-13.482-13.12V13.606
			c0-7.233,6.049-13.116,13.482-13.116h122.184c7.436,0,13.483,5.882,13.483,13.116V26.717z M241.092,0H118.908
			c-7.713,0-13.987,6.103-13.987,13.606v13.111c0,7.506,6.274,13.608,13.987,13.608h122.184c7.712,0,13.986-6.101,13.986-13.608
			V13.606C255.078,6.103,248.804,0,241.092,0"/>
		<path fill="#FFFFFF" d="M160.366,12.382h3.426c0.444,0,0.844,0.103,1.201,0.309c0.357,0.205,0.637,0.492,0.838,0.859
			c0.201,0.368,0.303,0.765,0.303,1.196c0,0.552-0.184,0.989-0.551,1.316c-0.366,0.327-0.887,0.523-1.563,0.593l2.163,3.759h-1.701
			l-2.167-4.112c0.794,0,1.374-0.154,1.742-0.464c0.369-0.309,0.551-0.709,0.551-1.205c0-0.381-0.075-0.706-0.227-0.983
			c-0.151-0.273-0.367-0.485-0.646-0.633c-0.28-0.15-0.61-0.226-0.992-0.226h-0.851v7.623h-1.526L160.366,12.382L160.366,12.382z"/>
		<polygon fill="#FFFFFF" points="167.344,12.382 172.096,12.382 172.096,12.89 168.847,12.89 168.847,16.013 171.895,16.013 
			171.895,16.522 168.847,16.522 168.847,19.881 172.145,19.881 172.145,20.415 167.344,20.415 		"/>
		<path fill="#FFFFFF" d="M174.996,19.905h0.981c0.996,0,1.728-0.294,2.191-0.883c0.463-0.59,0.698-1.379,0.698-2.368
			c0-0.223-0.006-0.392-0.014-0.507c-0.044-0.643-0.185-1.208-0.42-1.698c-0.236-0.491-0.564-0.874-0.985-1.147
			c-0.421-0.274-0.907-0.413-1.459-0.413h-0.992V19.905z M173.471,12.382h2.615c1.406,0,2.514,0.458,3.322,1.373
			c0.209,0.229,0.385,0.496,0.525,0.799c0.14,0.303,0.243,0.63,0.313,0.98c0.071,0.35,0.107,0.701,0.107,1.048
			c0,0.944-0.221,1.719-0.66,2.33c-0.331,0.479-0.769,0.85-1.313,1.109c-0.544,0.262-1.234,0.392-2.071,0.392h-2.838L173.471,12.382
			L173.471,12.382z"/>
		<polygon fill="#FFFFFF" points="181.575,12.382 186.327,12.382 186.327,12.89 183.076,12.89 183.076,16.013 186.129,16.013 
			186.129,16.522 183.076,16.522 183.076,19.881 186.376,19.881 186.376,20.415 181.575,20.415 		"/>
		<path fill="#FFFFFF" d="M191.042,19.391l0.547-0.436c0.204,0.32,0.396,0.552,0.58,0.699c0.184,0.148,0.407,0.245,0.664,0.293
			c0.044,0.01,0.102,0.018,0.183,0.026c0.081,0.009,0.143,0.017,0.178,0.024c0.395-0.014,0.741-0.133,1.035-0.363
			c0.294-0.23,0.451-0.527,0.464-0.896c0-0.527-0.144-0.93-0.433-1.21c-0.287-0.277-0.696-0.504-1.225-0.676
			c-0.407-0.145-0.765-0.306-1.066-0.484s-0.547-0.42-0.739-0.729c-0.188-0.309-0.285-0.696-0.285-1.165
			c0.016-0.48,0.15-0.895,0.401-1.243c0.247-0.349,0.581-0.614,0.991-0.797c0.411-0.184,0.866-0.276,1.358-0.276
			c0.244,0.012,0.482,0.055,0.718,0.129c0.232,0.076,0.441,0.172,0.629,0.292c0.186,0.118,0.362,0.266,0.519,0.442
			c0.157,0.177,0.283,0.365,0.368,0.564l-0.507,0.344c-0.339-0.731-0.881-1.111-1.622-1.144c-0.372,0-0.682,0.115-0.935,0.342
			c-0.255,0.228-0.393,0.54-0.423,0.934c0,0.246,0.044,0.453,0.122,0.619c0.085,0.163,0.216,0.312,0.39,0.44
			c0.175,0.129,0.407,0.26,0.693,0.392c0.262,0.114,0.558,0.242,0.886,0.384c0.327,0.144,0.614,0.305,0.855,0.482
			c0.242,0.178,0.445,0.416,0.601,0.711c0.156,0.296,0.237,0.667,0.237,1.113c-0.005,0.472-0.141,0.893-0.405,1.266
			c-0.263,0.375-0.607,0.663-1.03,0.865c-0.424,0.201-0.868,0.302-1.334,0.302c-0.485,0-0.946-0.104-1.39-0.316
			C191.631,20.111,191.289,19.802,191.042,19.391"/>
		<path fill="#FFFFFF" d="M198.549,17.8h2.355l-1.188-2.956L198.549,17.8z M196.833,20.415l3.265-8.257h0.025l3.396,8.257h-1.575
			l-0.816-2.107h-2.792l-0.804,2.107H196.833z"/>
		<polygon fill="#FFFFFF" points="204.662,12.382 206.164,12.382 206.164,19.785 209.383,19.785 209.383,20.415 204.662,20.415 		
			"/>
		<polygon fill="#FFFFFF" points="210.299,12.382 215.05,12.382 215.05,12.89 211.799,12.89 211.799,16.013 214.85,16.013 
			214.85,16.522 211.799,16.522 211.799,19.881 215.097,19.881 215.097,20.415 210.299,20.415 		"/>
		<path fill="#FFFFFF" d="M216.333,19.391l0.546-0.436c0.203,0.32,0.394,0.552,0.581,0.699c0.182,0.148,0.405,0.245,0.663,0.293
			c0.043,0.01,0.101,0.018,0.183,0.026c0.081,0.009,0.142,0.017,0.177,0.024c0.395-0.014,0.74-0.133,1.033-0.363
			c0.294-0.23,0.453-0.527,0.465-0.896c0-0.527-0.143-0.93-0.432-1.21c-0.287-0.277-0.697-0.504-1.227-0.676
			c-0.407-0.145-0.765-0.306-1.066-0.484s-0.547-0.42-0.738-0.729c-0.185-0.309-0.284-0.696-0.284-1.165
			c0.015-0.48,0.15-0.895,0.401-1.243c0.247-0.349,0.58-0.614,0.993-0.797c0.409-0.184,0.863-0.276,1.355-0.276
			c0.245,0.012,0.483,0.055,0.719,0.129c0.232,0.076,0.44,0.172,0.627,0.292c0.189,0.118,0.364,0.266,0.521,0.442
			c0.157,0.177,0.279,0.365,0.37,0.564l-0.51,0.344c-0.338-0.731-0.879-1.111-1.621-1.144c-0.372,0-0.686,0.115-0.935,0.342
			c-0.255,0.228-0.393,0.54-0.424,0.934c0,0.246,0.043,0.453,0.123,0.619c0.084,0.163,0.214,0.312,0.388,0.44
			c0.178,0.129,0.408,0.26,0.694,0.392c0.263,0.114,0.556,0.242,0.888,0.384c0.329,0.144,0.614,0.305,0.854,0.482
			c0.243,0.178,0.444,0.416,0.6,0.711c0.156,0.296,0.237,0.667,0.237,1.113c-0.005,0.472-0.142,0.893-0.4,1.266
			c-0.267,0.375-0.611,0.663-1.037,0.865c-0.424,0.201-0.867,0.302-1.332,0.302c-0.484,0-0.945-0.104-1.388-0.316
			C216.921,20.111,216.58,19.802,216.333,19.391"/>
		<rect x="222.974" y="12.382" fill="#FFFFFF" width="1.523" height="8.033"/>
		<path fill="#FFFFFF" d="M227.271,17.8h2.354l-1.188-2.956L227.271,17.8z M225.558,20.415l3.264-8.257h0.023l3.395,8.257h-1.573
			l-0.817-2.107h-2.791l-0.806,2.107H225.558z"/>
		<polygon fill="#FFFFFF" points="233.255,12.382 234.623,12.382 238.808,17.895 238.846,17.895 238.846,12.382 239.487,12.382 
			239.487,20.415 238.819,20.415 233.938,13.992 233.916,13.992 233.916,20.415 233.255,20.415 		"/>
		<path fill="#FFFFFF" d="M242.208,17.8h2.356l-1.188-2.956L242.208,17.8z M240.497,20.415l3.262-8.257h0.023l3.398,8.257h-1.576
			l-0.819-2.107h-2.789l-0.805,2.107H240.497z"/>
		<path fill="#FFFFFF" d="M220.879,28.132h0.894c0.474,0,0.815-0.104,1.024-0.311c0.204-0.207,0.305-0.479,0.305-0.811
			c0-0.241-0.047-0.471-0.139-0.699c-0.096-0.223-0.237-0.404-0.424-0.541c-0.188-0.139-0.411-0.209-0.67-0.209h-0.99V28.132z
			 M220.879,25.156h0.756c0.827,0,1.24-0.403,1.24-1.214c-0.004-0.256-0.066-0.466-0.187-0.632c-0.125-0.167-0.282-0.287-0.478-0.36
			c-0.192-0.074-0.414-0.111-0.653-0.111h-0.679V25.156z M219.723,22.437h2.533c0.317,0,0.613,0.067,0.886,0.2
			c0.27,0.132,0.484,0.321,0.646,0.56c0.158,0.242,0.239,0.519,0.239,0.831c0,0.35-0.1,0.64-0.301,0.87
			c-0.2,0.231-0.46,0.384-0.778,0.458v0.017c0.447,0.086,0.779,0.27,0.99,0.552c0.216,0.282,0.321,0.594,0.321,0.933
			c0,0.247-0.047,0.479-0.136,0.689c-0.091,0.211-0.214,0.39-0.378,0.536c-0.162,0.146-0.358,0.258-0.588,0.334
			c-0.232,0.08-0.497,0.118-0.79,0.118h-2.646v-6.098H219.723z"/>
		<path fill="#FFFFFF" d="M225.174,22.437h2.6c0.337,0,0.642,0.078,0.911,0.235c0.273,0.156,0.483,0.374,0.639,0.651
			c0.148,0.278,0.229,0.583,0.229,0.909c0,0.417-0.141,0.75-0.42,0.999c-0.277,0.248-0.676,0.397-1.187,0.449l1.642,2.854h-1.293
			l-1.644-3.123c0.602,0,1.044-0.116,1.323-0.352c0.276-0.234,0.417-0.54,0.417-0.916c0-0.288-0.057-0.535-0.172-0.744
			c-0.115-0.208-0.279-0.37-0.491-0.481c-0.216-0.114-0.464-0.171-0.753-0.171h-0.647v5.786h-1.157v-6.097H225.174z"/>
		<path fill="#FFFFFF" d="M231.153,26.55h1.786l-0.898-2.244L231.153,26.55z M229.851,28.535l2.479-6.267h0.02l2.574,6.267h-1.191
			l-0.622-1.597h-2.119l-0.609,1.597H229.851z"/>
		<path fill="#FFFFFF" d="M235.029,27.759l0.416-0.333c0.153,0.243,0.299,0.419,0.438,0.532c0.14,0.112,0.306,0.186,0.504,0.222
			c0.029,0.007,0.076,0.011,0.14,0.017c0.061,0.007,0.105,0.014,0.133,0.02c0.302-0.011,0.563-0.101,0.787-0.275
			c0.222-0.176,0.34-0.401,0.353-0.679c0-0.401-0.109-0.708-0.33-0.918c-0.221-0.211-0.529-0.384-0.93-0.516
			c-0.309-0.111-0.582-0.233-0.81-0.366c-0.228-0.135-0.417-0.32-0.56-0.554c-0.144-0.235-0.22-0.529-0.22-0.884
			c0.015-0.364,0.113-0.68,0.306-0.942c0.19-0.266,0.438-0.468,0.754-0.608c0.312-0.138,0.656-0.208,1.032-0.208
			c0.183,0.01,0.368,0.042,0.543,0.098c0.176,0.058,0.339,0.131,0.479,0.222c0.143,0.09,0.274,0.201,0.395,0.336
			c0.118,0.137,0.212,0.278,0.279,0.427l-0.387,0.263c-0.258-0.554-0.667-0.844-1.233-0.87c-0.279,0-0.515,0.088-0.705,0.26
			c-0.191,0.173-0.301,0.409-0.319,0.709c0,0.188,0.031,0.343,0.096,0.469c0.061,0.125,0.161,0.237,0.293,0.336
			c0.134,0.096,0.31,0.196,0.526,0.295c0.2,0.088,0.425,0.185,0.674,0.293c0.249,0.109,0.466,0.231,0.651,0.365
			c0.182,0.135,0.336,0.316,0.454,0.541c0.121,0.226,0.18,0.507,0.18,0.845c-0.002,0.359-0.104,0.679-0.305,0.963
			c-0.201,0.283-0.463,0.501-0.786,0.655c-0.318,0.152-0.659,0.229-1.014,0.229c-0.367,0-0.717-0.08-1.053-0.241
			C235.477,28.307,235.215,28.069,235.029,27.759"/>
		<rect x="240.258" y="22.436" fill="#FFFFFF" width="1.157" height="6.099"/>
		<polygon fill="#FFFFFF" points="243.485,22.437 244.625,22.437 244.625,28.057 247.067,28.057 247.067,28.535 243.485,28.535 		
			"/>
		<path fill="#ED3D42" d="M134.517,7.452c0,0-13.472,8.154-5.86,8.102c7.609-0.051,9.352,1.928,6.966,5.844
			c-2.615,4.292-12.061,12.671-12.061,12.671h-9.579c0,0,12.999-8.64,15.999-12.706c0,0,3.059-3.261-2.818-3.464
			c-5.878-0.206-8.494-0.668-3.059-5.402c0,0,2.956-2.447,7.677-5.045H134.517z"/>
		<path fill="#1C3D94" d="M132.645,11.472c-0.682-0.29-1.363-0.546-2.044-0.771c-0.023,0.019-0.047,0.036-0.075,0.055
			c-0.066,0.051-0.128,0.097-0.194,0.147c0.717,0.241,1.437,0.522,2.153,0.84c7.643,3.404,12.121,10.018,10.003,14.775
			c-1.784,4.007-7.685,5.417-14.069,3.725c-0.504,0.486-0.988,0.95-1.446,1.38c7.579,2.354,14.812,0.76,16.851-4.015
			C146.092,22.304,141.083,15.078,132.645,11.472"/>
		<path fill="#1C3D94" d="M114.814,14.197c1.575-3.537,6.351-5.048,11.835-4.196c0.105-0.07,0.21-0.144,0.32-0.216
			c-6.358-1.091-11.959,0.661-13.714,4.77c-1.908,4.467,1.336,10.289,7.442,14.171c0.496-0.367,0.997-0.74,1.498-1.121
			C116.192,23.997,112.951,18.378,114.814,14.197"/>
	</g>
	<g enable-background="new    ">
		<path fill="#1C3D94" d="M129.926,59.814l4.595-11.639h0.035l4.792,11.639h-2.223l-1.152-2.969h-3.934l-1.135,2.969H129.926z
			 M132.338,56.129h3.319l-1.677-4.16L132.338,56.129z"/>
		<path fill="#1C3D94" d="M142.893,48.492v8.105c0,0.697,0.242,1.258,0.724,1.68c0.482,0.422,1.084,0.66,1.807,0.715
			c0.577-0.035,1.09-0.156,1.54-0.367c0.367-0.213,0.634-0.475,0.8-0.785c0.167-0.311,0.25-0.711,0.25-1.203V48.49h0.926v8.355
			c0,0.707-0.172,1.309-0.516,1.805c-0.345,0.494-0.823,0.865-1.434,1.111c-0.611,0.244-1.314,0.369-2.107,0.369
			c-0.684,0-1.286-0.086-1.808-0.258c-0.522-0.174-0.956-0.42-1.301-0.742c-0.346-0.322-0.604-0.709-0.774-1.162
			c-0.171-0.455-0.256-0.965-0.256-1.531V48.49h2.148V48.492z"/>
		<path fill="#1C3D94" d="M150.231,48.492h2.518l2.675,4.053l2.901-4.053h1.221L156,53.438l4.161,6.377h-2.624l-2.901-4.475
			l-3.212,4.475h-1.156l3.793-5.361L150.231,48.492z"/>
		<path fill="#1C3D94" d="M161.256,48.492h2.15v11.322h-2.15V48.492z"/>
		<path fill="#1C3D94" d="M166.202,48.492h2.117v10.432h4.543v0.891h-6.66V48.492z"/>
		<path fill="#1C3D94" d="M174.189,48.492h2.15v11.322h-2.15V48.492z"/>
		<path fill="#1C3D94" d="M177.845,59.814l4.596-11.639h0.034l4.79,11.639h-2.222l-1.152-2.969h-3.934l-1.134,2.969H177.845z
			 M180.256,56.129h3.32l-1.677-4.16L180.256,56.129z"/>
		<path fill="#1C3D94" d="M188.623,48.492h3.688c1.983,0,3.547,0.645,4.687,1.936c0.886,0.996,1.329,2.324,1.329,3.986
			c0,1.328-0.31,2.422-0.927,3.285c-0.465,0.668-1.082,1.189-1.853,1.559c-0.771,0.371-1.745,0.557-2.919,0.557h-4.006
			L188.623,48.492L188.623,48.492z M190.774,59.098h1.381c1.408,0,2.439-0.414,3.092-1.242c0.652-0.83,0.979-1.941,0.979-3.336
			c0-0.314-0.006-0.555-0.019-0.717c-0.087-1.373-0.488-2.482-1.202-3.328c-0.714-0.844-1.659-1.266-2.833-1.266h-1.398V59.098
			L190.774,59.098z"/>
		<path fill="#1C3D94" d="M204.965,48.176c1.248,0.053,2.272,0.4,3.072,1.039c0.799,0.637,1.378,1.383,1.74,2.236
			c0.36,0.852,0.557,1.648,0.589,2.387c0,1.059-0.163,1.986-0.488,2.789c-0.327,0.801-0.761,1.459-1.307,1.975
			c-0.544,0.518-1.134,0.898-1.769,1.145c-0.634,0.248-1.266,0.377-1.89,0.385c-1.036,0-1.989-0.23-2.861-0.693
			s-1.568-1.129-2.093-2c-0.523-0.869-0.807-1.889-0.85-3.059c0-0.803,0.124-1.574,0.372-2.314c0.247-0.742,0.615-1.408,1.101-1.998
			c0.486-0.592,1.083-1.055,1.789-1.389c0.705-0.336,1.495-0.502,2.367-0.502H204.965z M204.88,48.893
			c-0.712,0-1.319,0.168-1.824,0.506c-0.503,0.336-0.899,0.898-1.188,1.684c-0.291,0.785-0.453,1.82-0.487,3.105
			c0,1.496,0.275,2.738,0.829,3.723c0.55,0.984,1.348,1.488,2.389,1.504c0.115-0.021,0.261-0.033,0.435-0.033
			c0.705-0.078,1.285-0.363,1.741-0.854c0.455-0.492,0.786-1.113,0.992-1.861s0.309-1.563,0.309-2.443
			c-0.016-0.926-0.114-1.779-0.301-2.563c-0.187-0.785-0.515-1.438-0.987-1.961C206.317,49.174,205.682,48.904,204.88,48.893z"/>
		<path fill="#1C3D94" d="M211.936,48.492h4.824c0.632,0,1.198,0.146,1.703,0.441c0.503,0.295,0.897,0.695,1.179,1.205
			c0.281,0.508,0.423,1.072,0.423,1.689c0,0.781-0.257,1.4-0.77,1.857c-0.514,0.457-1.247,0.734-2.2,0.834l3.043,5.295h-2.398
			l-3.054-5.803c1.116,0,1.935-0.217,2.453-0.65c0.517-0.432,0.776-1.002,0.776-1.709c0-0.527-0.106-0.988-0.317-1.379
			c-0.213-0.391-0.516-0.691-0.909-0.898c-0.394-0.205-0.857-0.309-1.392-0.309h-1.208v10.748h-2.151V48.492H211.936z"/>
		<path fill="#1C3D94" d="M220.622,59.814l4.596-11.639h0.034l4.792,11.639h-2.224l-1.151-2.969h-3.934l-1.136,2.969H220.622z
			 M223.033,56.129h3.319l-1.677-4.16L223.033,56.129z"/>
	</g>
</g>
</svg>
